<?xml version="1.0" encoding="UTF-8"?>
<svg width="114" height="21.9999" version="1.1" viewBox="0 0 114 21.9999" xml:space="preserve" xmlns="http://www.w3.org/2000/svg"><defs><linearGradient id="linearGradient1022" x1="13" x2="165" y1="422.52" y2="422.52" gradientTransform="matrix(.749998 0 0 1 3.25002 0)" gradientUnits="userSpaceOnUse"><stop stop-color="#f00" offset="0"/><stop stop-color="#f00" offset=".107059"/><stop stop-color="#00f" offset="1"/></linearGradient></defs><g transform="translate(-13 -411.52)"><rect x="13" y="411.52" width="114" height="21.9999" rx="4.49999" ry="6" fill="url(#linearGradient1022)" stroke-width=".977843"/><path d="m47.8477 417.973v6.76757c0 1.332 0.540219 1.89649 1.82422 1.89649 0.444 0 0.960047-0.12078 1.24805-0.30078l0.130859-1.25977c-0.216 0.072-0.371328 0.10938-0.611328 0.10938-0.42 0-0.552734-0.21614-0.552734-0.74414v-6.46875zm41.473 0v8.54492h2.04101v-3.15625c0-1.008 0.49208-1.41602 1.08008-1.41602 0.504 0 0.85156 0.28667 0.85156 1.13867v3.4336h2.03907v-3.9961c0-1.392-0.83822-2.125-2.07422-2.125-0.864 0-1.53649 0.40889-1.89649 1.21289v-3.63671zm-49.3206 0.625v7.91992h2.06445v-2.74805h1.57227c1.968 0 3.05859-0.92492 3.05859-2.54492 0-1.704-1.09059-2.62695-3.05859-2.62695zm41.1546 0v1.5957h2.5918v6.32422h2.06445v-6.32422h2.58008v-1.5957zm-39.0902 1.55858h1.24805c0.912 0 1.30664 0.34892 1.30664 1.04492 0 0.708-0.394641 1.05469-1.30664 1.05469h-1.24805zm12.5645 0.24023c-2.004 0-3.13086 1.1411-3.13086 3.1211s1.14023 3.11914 3.24023 3.11914c1.392 0 2.41177-0.52827 2.75977-1.57227l-1.65625-0.52734c-0.132 0.42-0.503516 0.66015-1.10352 0.66015-0.684 0-1.12776-0.31179-1.25976-1.09179h4.0918c0.036-0.156 0.05859-0.46788 0.05859-0.67188 0-1.896-1.044-3.03711-3-3.03711zm6.63672 0c-1.632 0-2.56748 0.70766-2.77148 1.84766l1.65625 0.48047c0.12-0.696 0.539234-0.92383 1.11523-0.92383 0.54 0 0.851563 0.34867 0.851563 0.88867v0.21485l-1.35547 0.26367c-1.704 0.336-2.33984 0.97275-2.33984 1.96875 0 0.972 0.671375 1.5 1.85938 1.5 1.104 0 1.80072-0.34783 2.13672-0.92383 0.18 0.648 0.744828 0.92383 1.54883 0.92383 0.3 0 0.574453-0.0594 0.814453-0.19141l0.15625-1.14062c-0.108 0.036-0.227094 0.0488-0.371094 0.0488-0.288 0-0.43164-0.15675-0.43164-0.46875v-2.18359c0-1.548-1.02114-2.30469-2.86914-2.30469zm7.07031 0c-1.956 0-2.89258 1.00819-2.89258 1.99219s0.660375 1.57164 2.48438 1.93164c0.804 0.168 1.0918 0.31302 1.0918 0.54102 0 0.252-0.33639 0.41992-0.90039 0.41992-0.768 0-1.41539-0.25156-1.77539-0.85156l-1.05664 1.15039c0.612 0.744 1.60774 1.05664 2.92774 1.05664 1.932 0 2.85547-0.86475 2.85547-1.96875 0-1.032-0.706421-1.59425-2.48242-1.90625-0.84-0.156-1.10547-0.31274-1.10547-0.55274s0.312109-0.45703 0.912109-0.45703c0.72 0 1.24798 0.25352 1.58398 0.85352l1.10352-1.08008c-0.516-0.708-1.30609-1.12891-2.74609-1.12891zm6.58984 0c-2.004 0-3.13086 1.1411-3.13086 3.1211s1.14023 3.11914 3.24023 3.11914c1.392 0 2.41177-0.52827 2.75977-1.57227l-1.65625-0.52734c-0.132 0.42-0.503516 0.66015-1.10352 0.66015-0.684 0-1.12776-0.31179-1.25976-1.09179h4.0918c0.036-0.156 0.05859-0.46788 0.05859-0.67188 0-1.896-1.044-3.03711-3-3.03711zm24.6683 0c-2.004 0-3.13086 1.1411-3.13086 3.1211s1.14024 3.11914 3.24024 3.11914c1.392 0 2.41176-0.52827 2.75976-1.57227l-1.65625-0.52734c-0.132 0.42-0.50351 0.66015-1.10351 0.66015-0.684 0-1.12777-0.31179-1.25977-1.09179h4.0918c0.036-0.156 0.0586-0.46788 0.0586-0.67188 0-1.896-1.044-3.03711-3-3.03711zm8.04102 0c-0.912 0-1.63163 0.43149-2.01563 1.27149l-0.0605-1.15039h-1.82422v6h2.04101v-3.16797c0-0.984 0.49069-1.39258 1.05469-1.39258 0.48 0 0.81641 0.27525 0.81641 1.03125v3.5293h2.04101v-3.20508c0-0.9 0.44269-1.35547 1.05469-1.35547 0.492 0 0.81641 0.27525 0.81641 1.03125v3.5293h2.04101v-3.9961c0-1.404-0.87673-2.125-2.05273-2.125-0.876 0-1.61963 0.42089-2.01563 1.21289-0.288-0.804-1.00848-1.21289-1.89648-1.21289zm10.2402 0c-2.004 0-3.13086 1.1411-3.13086 3.1211s1.14024 3.11914 3.24024 3.11914c1.392 0 2.41176-0.52827 2.75976-1.57227l-1.65625-0.52734c-0.132 0.42-0.50351 0.66015-1.10351 0.66015-0.684 0-1.12777-0.31179-1.25977-1.09179h4.0918c0.036-0.156 0.0586-0.46788 0.0586-0.67188 0-1.896-1.044-3.03711-3-3.03711zm-63.2581 1.42774c0.636 0 1.00947 0.40778 1.10547 1.17578h-2.25781c0.12-0.804 0.504343-1.17578 1.15234-1.17578zm20.2969 0c0.636 0 1.00947 0.40778 1.10547 1.17578h-2.25781c0.12-0.804 0.504343-1.17578 1.15234-1.17578zm24.6683 0c0.635989 0 1.00946 0.40778 1.10546 1.17578h-2.25781c0.12-0.804 0.50434-1.17578 1.15235-1.17578zm18.2812 0c0.636 0 1.00947 0.40778 1.10547 1.17578h-2.25781c0.12-0.804 0.50434-1.17578 1.15234-1.17578zm-55.7464 2.12501v0.51562c0 0.552-0.587797 0.85157-1.0918 0.85157-0.372 0-0.587891-0.17963-0.587891-0.51563s0.204984-0.50305 0.708984-0.62305z" fill="#fff"/><g transform="translate(18,415.52)" enable-background="new" fill="#fff" stroke-width="1.33333"><path d="m3 0c-1.66016 0-3 1.33984-3 3v2c0 1.66016 1.33984 3 3 3h10c1.66016 0 3-1.33984 3-3v-2c0-1.66016-1.33984-3-3-3zm0 2h10c0.554688 0 1 0.445312 1 1v2c0 0.554688-0.445312 1-1 1h-10c-0.554688 0-1-0.445312-1-1v-2c0-0.554688 0.445312-1 1-1z"/><path d="m8 9h7c0.550781 0 1 0.449219 1 1s-0.449219 1-1 1h-7c-0.550781 0-1-0.449219-1-1s0.449219-1 1-1z"/><path d="m8 9c0.550781 0 1 0.449219 1 1v5c0 0.550781-0.449219 1-1 1s-1-0.449219-1-1v-5c0-0.550781 0.449219-1 1-1z"/></g></g></svg>
