<svg xmlns="http://www.w3.org/2000/svg" width="20.687" height="20.88"><filter id="a" width="1.162" height="1.16" x="-.081" y="-.08" color-interpolation-filters="sRGB"><feGaussianBlur result="blur" stdDeviation=".6 .6"/></filter><path d="M8.247 1.44c-1.097 0-1.995.9-1.998 1.996l-.002.002v.002l-.027 8.283-1.482-.814-.004-.004c-.416-.222-.858-.4-1.332-.43-.475-.03-.99.129-1.38.518a2.007 2.007 0 0 0 0 2.828l3.872 3.873c.267.317.65.723 1.119 1.072.485.36 1.068.674 1.734.674h7.5c.948 0 1.741-.435 2.248-1.092s.752-1.513.752-2.408v-6.5c0-1.099-.9-2-2-2-.47 0-.864.229-1.207.504-.243-.83-.887-1.504-1.793-1.504-.632 0-1.132.338-1.5.8-.367-.462-.868-.8-1.5-.8-.389 0-.691.22-1 .416V3.44c0-1.099-.901-2-2-2z" filter="url(#a)" opacity=".3"/><path fill="#ff4539" stroke="#fff" stroke-linejoin="round" d="m6.748 2.44-.029 9.128-2.222-1.222c-.76-.406-1.535-.585-2.121 0a1.5 1.5 0 0 0 0 2.122l3.872 3.872c.5.6 1.5 1.6 2.5 1.6h7.5c1.605 0 2.5-1.395 2.5-3v-6.5a1.5 1.5 0 1 0-3 0v-1a1.5 1.5 0 1 0-3 0 1.5 1.5 0 1 0-3 0v-5a1.5 1.5 0 1 0-3 0z"/><path stroke="#fff" stroke-linecap="round" d="M9.748 7.44v1.5m3-1.5-.008 1.5m3.008-1v1"/></svg>