<svg xmlns="http://www.w3.org/2000/svg" width="20.6874" height="20.88"><defs><filter id="a" width="1.16173" height="1.16" x="-.0808655" y="-.08" color-interpolation-filters="sRGB"><feGaussianBlur result="blur" stdDeviation="0.6 0.6"/></filter></defs><path d="M8.24736 1.44c-1.09707 0-1.99548.89957-1.99804 1.99609-.00066.000649-.001.0013-.002.002V3.44l-.0273 8.2832-1.48242-.814453c-.001-.0013-.003-.0026-.004-.0039-.41559-.221995-.85772-.400297-1.33203-.429688-.47432-.02939-.99002.128688-1.37891.517578-.77688.776857-.77687 2.05124 0 2.82812l3.8711 3.87305c.26681.316878.64949.723388 1.11914 1.07227.48553.360442 1.0678.673822 1.73446.673822h7.5c.94724 0 1.74105-.435473 2.24805-1.0918s.75195-1.5129.75195-2.4082v-6.5c0-1.09862-.9013-2-2-2-.47028 0-.86426.228806-1.20703.503906-.24318-.83051-.88734-1.50391-1.79297-1.50391-.63225 0-1.13261.33793-1.5.800781-.36739-.462567-.86793-.800781-1.5-.800781-.38941 0-.69151.220877-1 .416016v-3.41602c0-1.09865-.90135-2-2-2z" filter="url(#a)" opacity=".3"/><path fill="#ff4539" stroke="#fff" stroke-linejoin="round" d="m6.74831 2.44-.02932 9.128-2.22171-1.22167c-.76067-.40633-1.53553-.58579-2.12132 0-.585786.58577-.585785 1.53557 0 2.12137L6.24833 16.34c.5.6 1.5 1.6 2.49998 1.6h7.49996c1.6046 0 2.5-1.3954 2.5-3v-6.5c0-.82843-.6715-1.5-1.5-1.5-.8284 0-1.5.67157-1.5 1.5v-1c0-.82843-.6715-1.5-1.5-1.5-.8284 0-1.5.67157-1.5 1.5 0-.82843-.6715-1.5-1.5-1.5-.82838 0-1.49996.67157-1.49996 1.5v-5c0-.82843-.67157-1.5-1.5-1.5-.82842 0-1.5.67157-1.5 1.5z"/><g fill="none" stroke="#fff" stroke-linecap="round"><path d="M9.74831 7.44v1.5M12.7483 7.44l-.0087 1.5M15.7483 7.94l.00028 1"/></g></svg>